<svg width="36" height="36" viewBox="0 0 36 36" fill="none" xmlns="http://www.w3.org/2000/svg">
<path d="M20.6067 25.7702L13.1902 18.4386C13.1197 18.369 13.0704 18.2994 13.0423 18.2298C13.0141 18.1601 13 18.0835 13 18C13 17.9164 13.0141 17.8399 13.0423 17.7702C13.0704 17.7006 13.1197 17.631 13.1902 17.5614L20.6067 10.2298C20.7616 10.0766 20.9588 10 21.1983 10C21.4378 10 21.635 10.0766 21.7899 10.2298C21.959 10.3969 22.0435 10.5953 22.0435 10.8251C22.0435 11.0548 21.959 11.2533 21.7899 11.4204L15.1341 18L21.7899 24.5796C21.959 24.7467 22.04 24.9452 22.0329 25.1749C22.0259 25.4047 21.9449 25.5962 21.7899 25.7493C21.6209 25.9164 21.4202 26 21.1877 26C20.9553 26 20.7616 25.9234 20.6067 25.7702Z" fill="#121926"/>
</svg>
