<svg width="10" height="10" viewBox="0 0 10 10" fill="none" xmlns="http://www.w3.org/2000/svg">
<g id="Icon/10/Info/Default">
<path id="Vector" d="M5 0C2.24 0 0 2.24 0 5C0 7.76 2.24 10 5 10C7.76 10 10 7.76 10 5C10 2.24 7.76 0 5 0ZM5 9C2.795 9 1 7.205 1 5C1 2.795 2.795 1 5 1C7.205 1 9 2.795 9 5C9 7.205 7.205 9 5 9ZM4.5 7H5.5V8H4.5V7ZM5.305 2.02C4.275 1.87 3.365 2.505 3.09 3.415C3 3.705 3.22 4 3.525 4H3.625C3.83 4 3.995 3.855 4.065 3.665C4.225 3.22 4.7 2.915 5.215 3.025C5.69 3.125 6.04 3.59 6 4.075C5.95 4.745 5.19 4.89 4.775 5.515C4.775 5.52 4.77 5.52 4.77 5.525C4.765 5.535 4.76 5.54 4.755 5.55C4.71 5.625 4.665 5.71 4.63 5.8C4.625 5.815 4.615 5.825 4.61 5.84C4.605 5.85 4.605 5.86 4.6 5.875C4.54 6.045 4.5 6.25 4.5 6.5H5.5C5.5 6.29 5.555 6.115 5.64 5.965C5.65 5.95 5.655 5.935 5.665 5.92C5.705 5.85 5.755 5.785 5.805 5.725C5.81 5.72 5.815 5.71 5.82 5.705C5.87 5.645 5.925 5.59 5.985 5.535C6.465 5.08 7.115 4.71 6.98 3.755C6.86 2.885 6.175 2.15 5.305 2.02Z" fill="#4B5565"/>
</g>
</svg>
