<svg width="24" height="24" viewBox="0 0 24 24" fill="none" xmlns="http://www.w3.org/2000/svg">
<g id="Icon/16/Wallet">
<path id="Vector" d="M12 21C7.04082 21 3 16.9592 3 12C3 7.04082 7.04082 3 12 3C16.9592 3 21 7.04082 21 12C21 16.9592 17.051 21 12 21ZM12 4.7449C8.05102 4.7449 4.83673 7.95918 4.83673 11.9082C4.83673 15.8571 8.05102 19.0714 12 19.0714C15.949 19.0714 19.1633 15.8571 19.1633 11.9082C19.2551 7.95918 16.0408 4.7449 12 4.7449Z" fill="#44B0EF"/>
<path id="Vector_2" d="M12.2757 11.1736C11.0819 10.8981 10.99 10.6226 10.99 10.3471C10.99 9.97971 11.4492 9.7042 12.0921 9.7042C12.7349 9.7042 13.0104 9.97971 13.0104 10.2552C13.1023 10.5307 13.3778 10.8062 13.6533 10.8062H13.837C14.1125 10.8062 14.2961 10.7144 14.4798 10.5307C14.5716 10.3471 14.6635 10.0715 14.5716 9.88787C14.2961 9.24502 13.837 8.694 13.1023 8.51032V8.23481C13.1023 7.68379 12.6431 7.22461 12.0921 7.22461C11.541 7.22461 11.0819 7.68379 11.0819 8.23481V8.41849C9.97981 8.694 9.33695 9.42869 9.33695 10.3471C9.33695 11.8164 10.8063 12.3675 11.8165 12.643C13.1023 12.9185 13.1023 13.3777 13.1023 13.5613C13.1023 13.745 13.0104 14.2042 12.0002 14.2042C11.3574 14.2042 10.99 14.0205 10.8063 13.6532C10.7145 13.3777 10.439 13.194 10.1635 13.194H9.97981C9.61246 13.194 9.24512 13.5613 9.24512 13.9287C9.24512 14.0205 9.24512 14.1124 9.33695 14.2042C9.61246 14.8471 10.2553 15.3981 10.99 15.5818V15.6736C10.99 16.2246 11.4492 16.6838 12.0002 16.6838C12.5512 16.6838 13.0104 16.2246 13.0104 15.6736V15.5818C14.1125 15.3062 14.7553 14.5715 14.7553 13.6532C14.7553 11.8164 13.0104 11.3573 12.2757 11.1736Z" fill="#44B0EF"/>
</g>
</svg>
