<svg width="161" height="30" viewBox="0 0 161 30" fill="none" xmlns="http://www.w3.org/2000/svg">
<g clip-path="url(#clip0_9_991)">
<path d="M30.0264 8.07031H33.3038L36.4403 14.0001H36.5813L39.7178 8.07031H42.9953L37.9557 16.9475V21.7896H35.0659V16.9475L30.0264 8.07031Z" fill="#44B0EF"/>
<path d="M47.0485 22.0002C45.9913 22.0002 45.1102 21.7897 44.3349 21.3336C43.5596 20.8774 42.9957 20.2809 42.5728 19.4739C42.1499 18.6669 41.9385 17.7546 41.9385 16.702C41.9385 15.6494 42.1499 14.702 42.5728 13.895C42.9957 13.0879 43.5596 12.4915 44.3349 12.0353C45.1102 11.5792 45.9913 11.3687 47.0485 11.3687C48.1058 11.3687 48.9868 11.5792 49.7621 12.0353C50.5374 12.4915 51.1013 13.0879 51.5242 13.895C51.9471 14.702 52.1586 15.6143 52.1586 16.702C52.1586 17.7546 51.9471 18.6669 51.5242 19.4739C51.1013 20.2809 50.5374 20.8774 49.7621 21.3336C49.022 21.7897 48.1058 22.0002 47.0485 22.0002ZM47.0838 19.7897C47.5771 19.7897 47.9648 19.6494 48.282 19.3687C48.5991 19.088 48.8458 18.7371 49.022 18.2458C49.1983 17.7546 49.2687 17.2283 49.2687 16.6318C49.2687 16.0353 49.1983 15.509 49.022 15.0178C48.8458 14.5265 48.6344 14.1757 48.282 13.895C47.9296 13.6143 47.5771 13.4739 47.0838 13.4739C46.5904 13.4739 46.2027 13.6143 45.8855 13.895C45.5684 14.1757 45.3217 14.5265 45.1455 15.0178C44.9693 15.4739 44.8988 16.0353 44.8988 16.6318C44.8988 17.2283 44.9693 17.7546 45.1455 18.2458C45.3217 18.702 45.5684 19.088 45.8855 19.3687C46.2027 19.6494 46.5904 19.7897 47.0838 19.7897Z" fill="#44B0EF"/>
<path d="M60.6509 17.4035V11.5088H63.5055V21.8246H60.7566V19.9649H60.6509C60.4042 20.5614 60.0166 21.0526 59.4879 21.4035C58.9593 21.7544 58.2897 21.9649 57.5144 21.9649C56.8096 21.9649 56.2105 21.8246 55.6818 21.5088C55.1532 21.193 54.7303 20.7369 54.4484 20.1755C54.1664 19.6141 53.9902 18.9123 53.9902 18.1053V11.5088H56.8448V17.5439C56.8448 18.1404 57.021 18.6316 57.3382 18.9825C57.6554 19.3334 58.0783 19.5088 58.6421 19.5088C58.9946 19.5088 59.3117 19.4386 59.6289 19.2632C59.9461 19.0877 60.1575 18.8772 60.369 18.5614C60.5804 18.2456 60.6509 17.8597 60.6509 17.4035Z" fill="#44B0EF"/>
<path d="M65.832 21.7897V11.509H68.6161V13.2985H68.7218C68.8981 12.6669 69.2152 12.1757 69.6734 11.8599C70.1315 11.5441 70.6249 11.3687 71.224 11.3687C71.365 11.3687 71.5059 11.3687 71.6821 11.4037C71.8584 11.4388 71.9993 11.4388 72.105 11.4739V14.0002C71.9641 13.9651 71.7879 13.9301 71.5412 13.895C71.2945 13.8599 71.083 13.8599 70.8716 13.8599C70.4487 13.8599 70.061 13.9651 69.7439 14.1406C69.4267 14.316 69.1447 14.5616 68.9685 14.9125C68.7923 15.2283 68.6866 15.6143 68.6866 16.0353V21.8599H65.832V21.7897Z" fill="#44B0EF"/>
<path d="M87.2231 12.3511H85.9544C85.8486 11.895 85.7077 11.4388 85.461 11.0528C85.2143 10.6669 84.8971 10.316 84.5447 10.0002C84.1923 9.68442 83.7694 9.4739 83.276 9.29846C82.7826 9.12302 82.2892 9.05285 81.7606 9.05285C80.8796 9.05285 80.1043 9.26337 79.3642 9.71951C78.6241 10.1757 78.0602 10.8423 77.6373 11.7195C77.2144 12.5967 77.003 13.6493 77.003 14.9125C77.003 16.1757 77.2144 17.2634 77.6373 18.1406C78.0602 19.0178 78.6241 19.6844 79.3642 20.1055C80.069 20.5616 80.8796 20.7721 81.7606 20.7721C82.2892 20.7721 82.8179 20.702 83.276 20.5265C83.7341 20.3511 84.157 20.1406 84.5447 19.8248C84.9324 19.509 85.2143 19.1932 85.461 18.7721C85.7077 18.3862 85.8839 17.93 85.9544 17.4739H87.2231C87.1173 18.1055 86.9059 18.702 86.5887 19.2283C86.2715 19.7546 85.8839 20.2458 85.4257 20.6669C84.9676 21.0879 84.4037 21.4037 83.8046 21.6142C83.2055 21.8248 82.5007 21.9651 81.7606 21.9651C80.5976 21.9651 79.5756 21.6844 78.6593 21.0879C77.7783 20.4914 77.0735 19.6844 76.5448 18.6318C76.0515 17.5792 75.7695 16.316 75.7695 14.9125C75.7695 13.4739 76.0162 12.2458 76.5448 11.1932C77.0382 10.1406 77.7431 9.33355 78.6593 8.73706C79.5404 8.14057 80.5976 7.85986 81.7606 7.85986C82.5007 7.85986 83.1703 7.96513 83.8046 8.21074C84.4037 8.42127 84.9676 8.73706 85.4257 9.15811C85.8839 9.57916 86.3068 10.0353 86.5887 10.5967C86.9059 11.123 87.1173 11.7195 87.2231 12.3511Z" fill="#44B0EF"/>
<path d="M93.9544 22.0002C93.0733 22.0002 92.2628 21.7897 91.5932 21.3336C90.9236 20.8774 90.3597 20.2458 89.9721 19.4739C89.5844 18.6669 89.4082 17.7546 89.4082 16.702C89.4082 15.6494 89.5844 14.702 89.9721 13.9301C90.3597 13.123 90.8883 12.4915 91.5932 12.0353C92.2628 11.5792 93.0733 11.3687 93.9544 11.3687C94.8354 11.3687 95.646 11.5792 96.3156 12.0353C96.9851 12.4915 97.549 13.123 97.9367 13.9301C98.3243 14.7371 98.5358 15.6494 98.5358 16.702C98.5358 17.7546 98.3596 18.6669 97.9719 19.4739C97.5843 20.2809 97.0556 20.9125 96.3508 21.3336C95.646 21.7897 94.8354 22.0002 93.9544 22.0002ZM93.9544 20.9125C94.6592 20.9125 95.2935 20.7371 95.7869 20.3511C96.2803 19.9651 96.668 19.4388 96.9147 18.8072C97.1614 18.1757 97.3023 17.4739 97.3023 16.702C97.3023 15.9301 97.1614 15.2283 96.9147 14.5967C96.668 13.9651 96.2803 13.4388 95.7869 13.0529C95.2935 12.6669 94.6944 12.4564 93.9544 12.4564C93.2495 12.4564 92.6152 12.6669 92.1218 13.0529C91.6284 13.4388 91.2408 13.9651 90.9941 14.5967C90.7474 15.2283 90.6064 15.9301 90.6064 16.702C90.6064 17.4739 90.7474 18.1757 90.9941 18.8072C91.2408 19.4388 91.6284 19.9651 92.1218 20.3511C92.6152 20.7371 93.2495 20.9125 93.9544 20.9125Z" fill="#44B0EF"/>
<path d="M101.144 21.7897V11.509H102.307V13.0879H102.412C102.624 12.5616 102.976 12.1406 103.434 11.8248C103.928 11.509 104.492 11.3687 105.161 11.3687C105.866 11.3687 106.465 11.5441 106.923 11.8599C107.381 12.2108 107.734 12.6669 107.945 13.2283H108.016C108.262 12.6669 108.615 12.2108 109.143 11.8599C109.672 11.509 110.306 11.3687 111.082 11.3687C112.033 11.3687 112.809 11.6844 113.372 12.2809C113.936 12.8774 114.218 13.7546 114.218 14.9125V21.8248H113.02V14.9125C113.02 14.1055 112.809 13.4739 112.386 13.0879C111.963 12.6669 111.434 12.4915 110.729 12.4915C109.954 12.4915 109.32 12.7371 108.897 13.2283C108.474 13.7195 108.262 14.316 108.262 15.0529V21.8248H107.029V14.8072C107.029 14.1055 106.817 13.5441 106.43 13.123C106.042 12.702 105.478 12.4915 104.773 12.4915C104.28 12.4915 103.857 12.5967 103.505 12.8423C103.117 13.0879 102.835 13.4037 102.624 13.8248C102.412 14.2458 102.307 14.702 102.307 15.2634V21.8599H101.144V21.7897Z" fill="#44B0EF"/>
<path d="M117.39 25.6494V11.509H118.553V13.4739H118.694C118.835 13.1581 119.011 12.8423 119.293 12.5265C119.575 12.2108 119.892 11.9301 120.279 11.7195C120.702 11.509 121.231 11.3687 121.865 11.3687C122.711 11.3687 123.451 11.5792 124.121 12.0353C124.755 12.4915 125.249 13.0879 125.636 13.895C125.989 14.702 126.165 15.6143 126.165 16.6669C126.165 17.7195 125.989 18.6669 125.636 19.4739C125.284 20.2809 124.79 20.9125 124.156 21.3336C123.522 21.7546 122.782 22.0002 121.936 22.0002C121.301 22.0002 120.773 21.895 120.35 21.6494C119.927 21.4388 119.575 21.1581 119.328 20.8072C119.081 20.4915 118.87 20.1406 118.729 19.8599H118.623V25.6494H117.39ZM118.588 16.6669C118.588 17.509 118.729 18.2458 118.976 18.8774C119.222 19.509 119.575 20.0353 120.068 20.3862C120.526 20.7371 121.125 20.9476 121.76 20.9476C122.464 20.9476 123.028 20.7722 123.522 20.3862C124.015 20.0002 124.367 19.509 124.614 18.8423C124.861 18.2108 125.002 17.4739 125.002 16.6669C125.002 15.8599 124.896 15.1581 124.649 14.5265C124.403 13.895 124.05 13.4037 123.557 13.0178C123.099 12.6318 122.5 12.4564 121.795 12.4564C121.125 12.4564 120.561 12.6318 120.068 12.9827C119.61 13.3336 119.222 13.8248 119.011 14.4564C118.694 15.0879 118.588 15.8248 118.588 16.6669Z" fill="#44B0EF"/>
<path d="M131.663 22.0354C131.028 22.0354 130.464 21.9301 129.936 21.6845C129.407 21.4389 129.019 21.088 128.702 20.6319C128.385 20.1757 128.244 19.6143 128.244 18.9477C128.244 18.4214 128.35 18.0003 128.526 17.6494C128.702 17.2985 128.984 17.0178 129.337 16.8073C129.689 16.5968 130.112 16.4214 130.605 16.281C131.099 16.1407 131.627 16.0354 132.191 15.9652C132.755 15.895 133.248 15.8249 133.671 15.7898C134.094 15.7547 134.376 15.6494 134.588 15.5442C134.799 15.4389 134.905 15.2284 134.905 14.9828V14.7371C134.905 14.0354 134.693 13.474 134.27 13.088C133.848 12.667 133.248 12.4915 132.473 12.4915C131.733 12.4915 131.134 12.667 130.641 12.9828C130.182 13.2985 129.83 13.6845 129.654 14.1407L128.526 13.7196C128.773 13.1582 129.09 12.7021 129.513 12.3512C129.936 12.0003 130.394 11.7547 130.887 11.6143C131.416 11.474 131.909 11.4038 132.438 11.4038C132.826 11.4038 133.248 11.4389 133.671 11.5442C134.094 11.6494 134.482 11.8249 134.87 12.0705C135.257 12.3161 135.539 12.667 135.751 13.1231C135.962 13.5792 136.103 14.1407 136.103 14.8424V21.8249H134.905V20.2108H134.834C134.693 20.5266 134.482 20.8073 134.2 21.088C133.918 21.3687 133.566 21.6143 133.143 21.7898C132.755 21.9301 132.262 22.0354 131.663 22.0354ZM131.839 20.9477C132.473 20.9477 133.037 20.8073 133.495 20.5266C133.953 20.2459 134.306 19.8599 134.588 19.4038C134.834 18.9477 134.975 18.4214 134.975 17.8599V16.3863C134.87 16.4564 134.729 16.5617 134.517 16.5968C134.306 16.6319 134.059 16.7371 133.812 16.7722C133.53 16.8073 133.284 16.8775 133.002 16.9126C132.72 16.9477 132.473 16.9828 132.262 17.0178C131.663 17.088 131.169 17.1933 130.782 17.3687C130.359 17.5091 130.041 17.7196 129.83 18.0003C129.619 18.281 129.513 18.5968 129.513 19.0178C129.513 19.6494 129.724 20.1407 130.182 20.4564C130.641 20.7722 131.169 20.9477 131.839 20.9477Z" fill="#44B0EF"/>
<path d="M140.544 15.3687V21.8248H139.346V11.509H140.509V13.123H140.614C140.861 12.5967 141.249 12.1757 141.742 11.8599C142.236 11.5441 142.905 11.3687 143.645 11.3687C144.35 11.3687 144.949 11.509 145.478 11.7897C146.006 12.0704 146.429 12.4915 146.711 13.0529C146.993 13.6143 147.169 14.2809 147.169 15.123V21.7897H145.971V15.1932C145.971 14.3511 145.724 13.6844 145.266 13.1932C144.808 12.702 144.174 12.4564 143.363 12.4564C142.835 12.4564 142.341 12.5616 141.918 12.8072C141.495 13.0529 141.178 13.3687 140.932 13.8248C140.65 14.2458 140.544 14.7722 140.544 15.3687Z" fill="#44B0EF"/>
<path d="M150.799 25.6491C150.552 25.6491 150.341 25.6141 150.129 25.579C149.918 25.5439 149.742 25.4737 149.636 25.4386L149.953 24.386C150.552 24.5965 151.081 24.5965 151.504 24.386C151.927 24.1755 152.279 23.7193 152.561 22.9474L152.949 21.8948L149.143 11.5088H150.447L153.513 20.2456H153.618L156.684 11.5088L157.988 11.5439L153.618 23.4386C153.442 23.9298 153.195 24.3509 152.949 24.6667C152.667 24.9825 152.35 25.2632 152.032 25.4035C151.609 25.579 151.222 25.6491 150.799 25.6491Z" fill="#44B0EF"/>
<path d="M13.3708 27.614C20.4165 27.614 26.1282 21.9272 26.1282 14.9122C26.1282 7.89722 20.4165 2.21045 13.3708 2.21045C6.325 2.21045 0.613281 7.89722 0.613281 14.9122C0.613281 21.9272 6.325 27.614 13.3708 27.614Z" fill="#44B0EF"/>
<path d="M13.3711 4.87744C10.9042 4.87744 8.64872 5.75463 6.92188 7.19323C6.88664 7.22832 6.81616 7.26341 6.78092 7.29849C4.66642 9.12305 3.32723 11.7897 3.29199 14.8073C3.29199 14.8424 3.29199 14.8774 3.29199 14.9125C3.29199 14.9476 3.29199 14.9827 3.29199 15.0178C3.32723 18.0002 4.66642 20.702 6.78092 22.5266C6.81616 22.5616 6.88664 22.6318 6.92188 22.6318C8.64872 24.0704 10.9042 24.9476 13.3359 24.9476C18.904 24.9476 23.415 20.4564 23.415 14.9125C23.4502 9.36867 18.9393 4.87744 13.3711 4.87744ZM22.4987 14.4213H19.9261C19.8556 12.2809 19.3622 10.2459 18.4811 8.56165C18.8336 8.4213 19.1507 8.28095 19.5032 8.1406C21.2652 9.71955 22.393 11.9652 22.4987 14.4213ZM18.023 7.78972C17.7411 7.33358 17.4239 6.94762 17.0715 6.59674C17.6353 6.84235 18.1992 7.15814 18.6926 7.50902C18.4811 7.61428 18.2697 7.68446 18.023 7.78972ZM13.8645 21.2985C14.9922 21.3336 16.0847 21.509 17.1067 21.7546C16.2257 22.9827 15.0979 23.8248 13.8645 23.9652C13.8645 23.3336 13.8645 22.4564 13.8645 21.2985ZM12.913 23.9652C11.75 23.7897 10.6575 23.0178 9.77646 21.7195C10.7632 21.4739 11.8205 21.2985 12.913 21.2985C12.913 22.4564 12.913 23.2985 12.913 23.9652ZM12.913 7.05288C12.913 7.54411 12.913 8.03534 12.913 8.52656C11.8205 8.49148 10.7632 8.35113 9.77646 8.10551C10.6575 6.80727 11.75 6.03534 12.913 5.8599C12.913 6.28095 12.913 6.66692 12.913 7.05288ZM13.8645 7.05288C13.8645 6.66692 13.8645 6.28095 13.8645 5.8599C15.0979 6.03534 16.2257 6.84235 17.1067 8.07042C16.0847 8.35113 14.9922 8.49148 13.8645 8.52656C13.8645 8.03534 13.8645 7.54411 13.8645 7.05288ZM8.82493 7.82481C8.543 7.71955 8.29631 7.64937 8.04961 7.54411C8.61348 7.15814 9.21259 6.80727 9.84694 6.56165C9.49452 6.87744 9.14211 7.33358 8.82493 7.82481ZM12.913 9.47393C12.913 10.702 12.913 12.2108 12.913 14.4564H7.90865C7.97913 12.4213 8.43727 10.4915 9.24783 8.94762C10.4108 9.26341 11.6443 9.43884 12.913 9.47393ZM12.9482 15.3687C12.9482 17.4038 12.9482 19.0529 12.9482 20.3511C11.6795 20.3862 10.446 20.5616 9.28307 20.8774C8.47252 19.3336 7.97913 17.4038 7.94389 15.3687H12.9482ZM8.82493 22.0002C9.14211 22.4915 9.45928 22.9125 9.84694 23.2985C9.21259 23.0178 8.61348 22.702 8.04961 22.316C8.29631 22.2108 8.57824 22.1055 8.82493 22.0002ZM18.023 22.0353C18.2697 22.1055 18.4811 22.2108 18.6926 22.316C18.1992 22.6669 17.6353 22.9827 17.0715 23.2283C17.4239 22.8774 17.7411 22.4915 18.023 22.0353ZM13.8645 20.3511C13.8645 19.0529 13.8645 17.4388 13.8645 15.3687H19.0098C18.9393 17.4739 18.4107 19.4038 17.6001 20.9125C16.4371 20.5967 15.1684 20.3862 13.8645 20.3511ZM13.8645 14.4213C13.8645 12.1757 13.8645 10.6669 13.8645 9.43884C15.1684 9.40376 16.4371 9.19323 17.6001 8.87744C18.4107 10.3862 18.9393 12.316 19.0098 14.4213H13.8645ZM7.23906 8.17569C7.59147 8.35113 7.97913 8.49148 8.36679 8.63183C7.52099 10.2809 7.06285 12.2809 6.99237 14.4213H4.27876C4.38448 11.9652 5.51222 9.75463 7.23906 8.17569ZM4.24352 15.3687H6.99237C7.06285 17.509 7.52099 19.509 8.36679 21.1581C7.97913 21.2985 7.59147 21.4388 7.23906 21.6143C5.51222 20.0704 4.38448 17.8599 4.24352 15.3687ZM19.5032 21.6494C19.186 21.509 18.8336 21.3687 18.4811 21.2283C19.3622 19.5792 19.8556 17.5441 19.9261 15.3687H22.4987C22.393 17.8599 21.2652 20.0704 19.5032 21.6494Z" fill="#F8FAFC"/>
</g>
<defs>
<clipPath id="clip0_9_991">
<rect width="160.667" height="30" fill="white"/>
</clipPath>
</defs>
</svg>
